<svg xmlns="http://www.w3.org/2000/svg" viewBox="0 0 826.9 828.59">
    <defs>
        <style>.cls{fill:none;stroke:#e4f899;stroke-miterlimit:10;stroke-width:5px;}</style>
    </defs>
    <title>Ruud Voost Logo</title>
    <g id="r-logo" data-name="Ruud Voost Logo">
        <path class="cls"
              d="M824.4,586.46c.2,11.69-18.43,5.6-26.7,13.87s-11.64,4.9-19.9,13.17-.29,16.25-8.56,24.52-15.85.69-24.12,9-7.58,9-15.86,17.23-5.59,11-13.86,19.22-10.21,6.33-18.48,14.6-9.1,7.44-17.37,15.71-3,13.53-11.29,21.8-3.68,12.85-12,21.12-13.05,3.49-21.32,11.77-12.5,4-20.77,12.32-2.08,14.47-10.35,22.75-6.76,17.14-18.46,16.95c-12.09-.2-2.19-17.15-10.74-25.69s-9-8.15-17.5-16.7-15.63-1.47-24.18-10-6.5-10.6-15.05-19.14-8-9.13-16.52-17.68-3.44-13.66-12-22.2-17.39.29-25.94-8.26-3.57-13.53-12.12-22.08-15.89-1.21-24.44-9.76-7.26-9.84-15.81-18.39S410.55,634,402,625.43s-13.87-3.23-22.42-11.78-5.51-11.59-14.06-20.14-8.25-8.85-16.8-17.4-13.91-3.19-22.46-11.74S321.48,552,312.93,543.5s-2.68-14.42-11.23-23-17-.15-25.51-8.7-7-10.07-15.58-18.62-14-3.08-22.58-11.63-9.1-8-17.65-16.56-2.45-14.65-11-23.21-13.72-4.93-13.92-17c-.2-11.69,6.34-6.82,14.61-15.09s2.61-13.92,10.88-22.19,12-4.52,20.28-12.79,13.72-2.82,22-11.09,3.28-13.27,11.55-21.54,8.51-8,16.78-16.3,4.52-12,12.79-20.29,5.24-11.3,13.51-19.57,8.32-8.23,16.59-16.5,14.6-1.94,22.87-10.21,5-11.56,13.26-19.83,11.25-5.29,19.53-13.56,12.68-3.87,21-12.14,1.06-26,12.76-25.81c12.09.2,2.24,20.16,10.79,28.71s21.34-4.24,29.89,4.31-3.86,21,4.69,29.51,15.66,1.44,24.21,10,13.45,3.65,22,12.2,8.19,8.91,16.74,17.46-2.2,19.3,6.35,27.85,10,7.09,18.56,15.64,9.89,7.21,18.44,15.76,11.66,5.44,20.21,14,1.95,15.15,10.5,23.7,10.41,6.69,19,15.24,12.85,4.25,21.4,12.8,1.73,15.37,10.28,23.92,12.4,4.7,20.95,13.25,5.74,11.37,14.29,19.92,18.6-1.5,27.15,7.05,1.92,15.19,10.47,23.74,16.19.91,24.74,9.46,5.51,11.6,14.06,20.15.23,16.88,8.78,25.43,12.81,4.35,23.49,10C814.72,575.42,824.19,574.37,824.4,586.46Z"/>
        <path class="cls"
              d="M678,339.76c0,7.9-16.48,15.13-17,22.89s13.28,17.14,12.18,24.85-16.13,13-17.78,20.64,2.67,16.55.48,24-3.87,15.19-6.6,22.51.68,17.51-2.57,24.62S636.53,492.17,632.78,499s-6.76,14.54-11,21.12S603,526,598.3,532.28s-.67,19.39-5.8,25.31-9.55,12.93-15.1,18.47-17.06,4.75-23,9.88-12.1,9.53-18.38,14.23-5.83,19.32-12.43,23.57-20.13-3-27,.79-10.67,13.43-17.81,16.7-15,4.93-22.37,7.68-16.16.58-23.71,2.79-15.3,1.7-23,3.37-13.93,9.52-21.73,10.63-15,9.36-22.85,9.91S349,664,341.11,664,324.79,677,317,676.43s-16.2-1.81-23.91-2.9-16.49-.69-24.11-2.34-15.45-5.6-22.93-7.79-11.83-14.79-19.14-17.52-13.51-7.7-20.62-11-17.72.45-24.58-3.3S171.63,618,165.05,613.72s-20.36,1.48-26.62-3.22-11.89-11.16-17.81-16.29-6.9-16-12.44-21.53-14.85-7.85-20-13.78-8.81-13.43-13.52-19.7-5.15-15.59-9.4-22.19S61.8,501.21,58,494.32s-19.65-7.67-22.92-14.82-3.31-16-6.06-23.35,3-17.44.79-25-7.29-14-9-21.73,2.59-16,1.48-23.82S3.57,371.81,3,363.94s-.4-16.28-.4-24.17,6.8-15.93,7.35-23.69,8.37-14.87,9.47-22.58-11-18.14-9.39-25.75,6.69-15.1,8.89-22.59,2.62-16.26,5.35-23.57,19.1-9.2,22.35-16.3.56-17.1,4.31-24,7.22-14.1,11.45-20.68,10.73-11.71,15.43-18S89.4,132,94.53,126.1,105.3,115,110.84,109.49s13-8.56,18.88-13.69,9.85-12.18,16.13-16.89,11.81-10.1,18.41-14.35,11.79-10.71,18.68-14.47,12.49-10.4,19.64-13.67,18.14,3.05,25.5.3,10.91-16.8,18.46-19,16.18-1.19,23.88-2.86,15.68-2.19,23.49-3.3,15.57-3.38,23.44-3.94,15.86,3.73,23.76,3.73S357.46,2,365.22,2.52s14.2,16.16,21.9,17.26,14.46,5.37,22.08,7,16.19-1.75,23.67.45,17.8-3.58,25.11-.85,9.74,17.27,16.85,20.52,16.19,2,23,5.71,10.05,13,16.63,17.28,17.14,2.24,23.4,6.94S552.38,84,558.29,89.11s6.19,16.2,11.73,21.74,12.51,9.35,17.64,15.28,7.83,13.42,12.53,19.7,14.51,8.78,18.76,15.38,1.15,17.28,4.92,24.17,9.39,12.33,12.66,19.48,14.58,10.89,17.33,18.26-2.26,17.28,0,24.83,12.8,13,14.46,20.65-5.52,17-4.41,24.75-2,15.55-1.41,23.42S678,331.86,678,339.76Z"/>
        <path class="cls"
              d="M345.54,713.3c-.3-12.11-4.33-11.95-4.33-24.07s2.42-12.12,2.42-24.24-11.54-12.12-11.54-24.23,4.68-12.12,4.68-24.24,7-12.12,7-24.24-5.25-12.12-5.25-24.24-8.43-12.12-8.43-24.24,9.76-12.12,9.76-24.24-4.55-12.12-4.55-24.24,12.31-12.12,12.31-24.24S330.34,459,330.34,446.86s5.1-12.12,5.1-24.24-6-12.12-6-24.24.75-12.12.75-24.24S340.78,362,340.78,349.9s-4.25-12.12-4.25-24.24,9.26-12.12,9.26-24.24S333.2,289.3,333.2,277.18s11.47-12.12,11.47-24.24S344,240.82,344,228.7s4.73-12.12,4.73-24.24-6.64-12.12-6.64-24.24-3.45-12.12-3.45-24.24-4.75-12.12-4.75-24.24,10.47-12.12,10.47-24.24S340,95.37,340,83.25s6.43-12.12,6.43-24.24.57-12.12.57-24.25S346.4,20,338,11.25c-8.1-8.41-10.9-1.75-22.58-1.75s-11.67-5.2-23.35-5.2-11.67,5.53-23.35,5.53S257,7.62,245.37,7.62,233.69,6.36,222,6.36s-11.67,13.51-23.35,13.51S187,5.5,175.33,5.5,163.65,9.14,152,9.14s-11.68,9.73-23.35,9.73-11.68-4.06-23.35-4.06S93.6,9,81.92,9s-11.68,3.6-23.35,3.6-11.68-2.51-23.36-2.51S20.07,2.2,12,10.61c-8.41,8.72-8.79,12-8.79,24.13S19.79,46.86,19.79,59,21.7,71.1,21.7,83.22,2.63,95.34,2.63,107.45s16.84,12.12,16.84,24.24-2.8,12.12-2.8,24.24.43,12.12.43,24.24S3.58,192.29,3.58,204.41s5.07,12.12,5.07,24.24-4.46,12.12-4.46,24.24S9,265,9,277.12s8.84,12.12,8.84,24.24-7.2,12.12-7.2,24.24S2.5,337.72,2.5,349.84s7.68,12.12,7.68,24.24,1,12.12,1,24.24,3.09,12.12,3.09,24.24S6.76,434.68,6.76,446.8,3.17,458.92,3.17,471s17.22,12.12,17.22,24.24-.76,12.12-.76,24.24-5.08,12.12-5.08,24.24S6.43,555.88,6.43,568s.4,12.12.4,24.24,7.51,12.12,7.51,24.24S4.5,628.61,4.5,640.73,14,652.85,14,665s5.52,12.12,5.52,24.25S5.18,701.5,5.48,713.62c0,.3,9.2-.51,9.21-.21.3,13.08.32,13.14.32,26.22s5.65,13.09,5.65,26.17S17.41,778.9,17.41,792,6,806.34,14.76,816.11c7.77,8.71,9.37,10,21,10s11.67-8.54,23.35-8.54,11.67.11,23.35.11,11.67-1.11,23.35-1.11,11.67-7.17,23.35-7.17,11.67,8.83,23.35,8.83,11.67-5.08,23.35-5.08,11.67,1.59,23.35,1.59,11.68,1.15,23.35,1.15,11.68.16,23.35.16,11.68,0,23.35,0,11.68-7.38,23.35-7.38S304.32,813,316,813s9.39,8.4,17.16-.32c8.71-9.76,5.59-7.56,5.59-20.64s-1.64-13.09-1.64-26.17.46-13.09.46-26.18-8.06-15.06-5-27.8C333.26,708.82,345.55,713.6,345.54,713.3Z"/>
    </g>
</svg>