<?xml version="1.0" standalone="no"?>
<!DOCTYPE svg PUBLIC "-//W3C//DTD SVG 20010904//EN"
 "http://www.w3.org/TR/2001/REC-SVG-20010904/DTD/svg10.dtd">
<svg version="1.0" xmlns="http://www.w3.org/2000/svg"
 width="2048.000000pt" height="2048.000000pt" viewBox="0 0 2048.000000 2048.000000"
 preserveAspectRatio="xMidYMid meet">
<metadata>
Created by potrace 1.11, written by Peter Selinger 2001-2013
</metadata>
<g transform="translate(0.000000,2048.000000) scale(0.100000,-0.100000)"
fill="#000000" stroke="none">
<path d="M4972 16024 l3 -169 85 -7 c291 -24 508 -59 652 -104 276 -86 412
-250 473 -568 52 -268 49 16 52 -4831 3 -3126 1 -4546 -7 -4675 -26 -454 -92
-682 -239 -829 -144 -144 -375 -208 -936 -259 l-80 -7 -3 -169 -2 -168 87 6
c847 60 4204 60 5046 0 l87 -6 0 169 0 170 -152 12 c-281 22 -549 71 -671 123
-245 103 -363 303 -411 694 -31 255 -36 571 -36 2537 l0 1967 611 0 c503 0
630 -3 717 -16 290 -43 506 -160 677 -367 187 -227 358 -652 510 -1272 79
-321 98 -418 301 -1545 101 -564 197 -1079 214 -1146 232 -961 786 -1428 1824
-1540 179 -20 579 -22 766 -5 412 38 747 129 1040 283 248 129 439 274 678
514 l163 164 -116 100 c-64 55 -120 100 -125 100 -5 0 -21 -15 -35 -34 -34
-44 -191 -181 -263 -228 -201 -133 -493 -153 -671 -46 -180 108 -295 305 -406
693 -24 83 -145 609 -270 1170 -124 561 -242 1081 -260 1155 -189 751 -591
1280 -1219 1604 -333 171 -733 296 -1250 391 -151 28 -584 85 -641 85 -71 0
-32 16 68 29 393 48 835 140 1187 248 722 220 1247 526 1638 957 499 550 767
1176 801 1871 24 508 -56 938 -248 1330 -91 184 -169 308 -286 450 -659 799
-1817 1224 -3560 1305 -260 12 -535 11 -2390 -10 -1450 -16 -2614 -4 -3293 36
l-112 6 2 -168z m5418 -199 c469 -73 831 -257 1078 -545 338 -395 529 -991
583 -1813 15 -234 6 -811 -15 -1007 -70 -623 -233 -1117 -485 -1471 -285 -398
-724 -625 -1371 -709 -176 -22 -378 -30 -813 -30 l-448 0 4 2258 c3 1628 7
2289 15 2372 44 425 106 614 252 761 54 55 94 85 143 108 79 38 227 77 342 90
125 15 591 6 715 -14z"/>
</g>
</svg>
