<?xml version="1.0" standalone="no"?>
<!DOCTYPE svg PUBLIC "-//W3C//DTD SVG 20010904//EN"
 "http://www.w3.org/TR/2001/REC-SVG-20010904/DTD/svg10.dtd">
<svg version="1.0" xmlns="http://www.w3.org/2000/svg"
 width="1000.000000pt" height="1000.000000pt" viewBox="0 0 1000.000000 1000.000000"
 preserveAspectRatio="xMidYMid meet">
<metadata>
Created by potrace 1.11, written by Peter Selinger 2001-2013
</metadata>
<g transform="translate(0.000000,1000.000000) scale(0.100000,-0.100000)"
fill="#000000" stroke="none">
<path d="M2420 8168 l0 -96 88 -7 c113 -9 264 -31 327 -49 159 -44 238 -125
279 -282 36 -141 37 -227 34 -2769 -4 -2252 -6 -2497 -20 -2560 -50 -217 -132
-301 -336 -345 -95 -20 -255 -40 -327 -40 l-45 0 0 -95 0 -96 213 8 c275 10
1597 10 1885 0 l222 -8 0 96 0 95 -45 0 c-66 0 -228 19 -315 37 -158 32 -248
91 -299 195 -74 150 -80 279 -81 1597 l0 1033 508 -5 c459 -4 516 -6 597 -25
161 -35 291 -111 393 -230 182 -211 253 -426 486 -1484 140 -630 173 -751 251
-916 66 -137 122 -218 209 -299 189 -178 476 -254 795 -213 242 32 389 108
571 296 87 91 220 256 220 275 0 11 -123 100 -135 97 -5 -2 -42 -41 -81 -88
-134 -161 -221 -221 -352 -241 -167 -25 -284 44 -367 216 -54 111 -90 234
-190 645 -204 836 -246 1002 -284 1110 -70 195 -169 372 -273 485 -118 129
-305 239 -533 314 -110 36 -387 99 -446 102 -14 1 -5 5 21 10 323 66 522 129
725 232 302 151 582 406 744 675 92 153 171 369 209 567 26 138 23 427 -6 562
-61 281 -179 499 -383 702 -287 287 -676 463 -1189 540 -277 41 -383 44 -1295
32 -810 -11 -1482 -4 -1702 15 l-73 7 0 -95z m2535 -113 c150 -16 220 -28 325
-57 491 -133 765 -461 866 -1038 16 -86 19 -156 19 -395 -1 -256 -3 -304 -22
-405 -54 -284 -145 -497 -287 -674 -167 -208 -413 -328 -801 -392 -80 -14
-196 -18 -577 -21 l-478 -5 0 1099 c1 1371 7 1505 79 1658 65 141 174 208 376
234 110 14 358 12 500 -4z"/>
</g>
</svg>
